<svg width="105" height="18" viewBox="0 0 105 18" fill="none" xmlns="http://www.w3.org/2000/svg">
    <path
        d="M11.2273 10.1818C11.2273 11.4091 11.0057 12.4697 10.5625 13.3636C10.1193 14.2576 9.51136 14.947 8.73864 15.4318C7.96591 15.9167 7.08333 16.1591 6.09091 16.1591C5.09849 16.1591 4.21591 15.9167 3.44318 15.4318C2.67045 14.947 2.0625 14.2576 1.61932 13.3636C1.17614 12.4697 0.954545 11.4091 0.954545 10.1818C0.954545 8.95455 1.17614 7.89394 1.61932 7C2.0625 6.10606 2.67045 5.41667 3.44318 4.93182C4.21591 4.44697 5.09849 4.20455 6.09091 4.20455C7.08333 4.20455 7.96591 4.44697 8.73864 4.93182C9.51136 5.41667 10.1193 6.10606 10.5625 7C11.0057 7.89394 11.2273 8.95455 11.2273 10.1818ZM9.86364 10.1818C9.86364 9.17424 9.69508 8.32386 9.35795 7.63068C9.02462 6.9375 8.57197 6.41288 8 6.05682C7.43182 5.70076 6.79545 5.52273 6.09091 5.52273C5.38636 5.52273 4.74811 5.70076 4.17614 6.05682C3.60795 6.41288 3.1553 6.9375 2.81818 7.63068C2.48485 8.32386 2.31818 9.17424 2.31818 10.1818C2.31818 11.1894 2.48485 12.0398 2.81818 12.733C3.1553 13.4261 3.60795 13.9508 4.17614 14.3068C4.74811 14.6629 5.38636 14.8409 6.09091 14.8409C6.79545 14.8409 7.43182 14.6629 8 14.3068C8.57197 13.9508 9.02462 13.4261 9.35795 12.733C9.69508 12.0398 9.86364 11.1894 9.86364 10.1818ZM14.4357 4.36364V16H13.0948V4.36364H14.4357ZM16.5716 16V7.27273H17.9126V16H16.5716ZM17.2535 5.81818C16.9921 5.81818 16.7667 5.72917 16.5773 5.55114C16.3917 5.37311 16.2989 5.15909 16.2989 4.90909C16.2989 4.65909 16.3917 4.44508 16.5773 4.26705C16.7667 4.08902 16.9921 4 17.2535 4C17.5148 4 17.7383 4.08902 17.9239 4.26705C18.1133 4.44508 18.208 4.65909 18.208 4.90909C18.208 5.15909 18.1133 5.37311 17.9239 5.55114C17.7383 5.72917 17.5148 5.81818 17.2535 5.81818ZM33.774 8H32.3649C32.2816 7.5947 32.1357 7.23864 31.9274 6.93182C31.7228 6.625 31.4728 6.36742 31.1774 6.15909C30.8857 5.94697 30.5619 5.78788 30.2058 5.68182C29.8497 5.57576 29.4785 5.52273 29.0922 5.52273C28.3876 5.52273 27.7494 5.70076 27.1774 6.05682C26.6092 6.41288 26.1566 6.9375 25.8194 7.63068C25.4861 8.32386 25.3194 9.17424 25.3194 10.1818C25.3194 11.1894 25.4861 12.0398 25.8194 12.733C26.1566 13.4261 26.6092 13.9508 27.1774 14.3068C27.7494 14.6629 28.3876 14.8409 29.0922 14.8409C29.4785 14.8409 29.8497 14.7879 30.2058 14.6818C30.5619 14.5758 30.8857 14.4186 31.1774 14.2102C31.4728 13.9981 31.7228 13.7386 31.9274 13.4318C32.1357 13.1212 32.2816 12.7652 32.3649 12.3636H33.774C33.6679 12.9583 33.4747 13.4905 33.1944 13.9602C32.9141 14.4299 32.5656 14.8295 32.149 15.1591C31.7323 15.4848 31.2645 15.733 30.7456 15.9034C30.2304 16.0739 29.6793 16.1591 29.0922 16.1591C28.0997 16.1591 27.2172 15.9167 26.4444 15.4318C25.6717 14.947 25.0637 14.2576 24.6206 13.3636C24.1774 12.4697 23.9558 11.4091 23.9558 10.1818C23.9558 8.95455 24.1774 7.89394 24.6206 7C25.0637 6.10606 25.6717 5.41667 26.4444 4.93182C27.2172 4.44697 28.0997 4.20455 29.0922 4.20455C29.6793 4.20455 30.2304 4.28977 30.7456 4.46023C31.2645 4.63068 31.7323 4.88068 32.149 5.21023C32.5656 5.53598 32.9141 5.93371 33.1944 6.40341C33.4747 6.86932 33.6679 7.40151 33.774 8ZM35.5491 16V7.27273H36.8446V8.59091H36.9355C37.0946 8.15909 37.3825 7.80871 37.7991 7.53977C38.2158 7.27083 38.6855 7.13636 39.2082 7.13636C39.3067 7.13636 39.4298 7.13826 39.5776 7.14205C39.7253 7.14583 39.837 7.15152 39.9128 7.15909V8.52273C39.8673 8.51136 39.7632 8.49432 39.6003 8.47159C39.4412 8.44508 39.2726 8.43182 39.0946 8.43182C38.6704 8.43182 38.2916 8.52083 37.9582 8.69886C37.6287 8.87311 37.3673 9.11553 37.1741 9.42614C36.9848 9.73295 36.8901 10.0833 36.8901 10.4773V16H35.5491ZM44.4621 16.1818C43.6742 16.1818 42.9829 15.9943 42.3882 15.6193C41.7973 15.2443 41.3352 14.7197 41.0019 14.0455C40.6723 13.3712 40.5076 12.5833 40.5076 11.6818C40.5076 10.7727 40.6723 9.97917 41.0019 9.30114C41.3352 8.62311 41.7973 8.09659 42.3882 7.72159C42.9829 7.34659 43.6742 7.15909 44.4621 7.15909C45.25 7.15909 45.9394 7.34659 46.5303 7.72159C47.125 8.09659 47.5871 8.62311 47.9166 9.30114C48.25 9.97917 48.4166 10.7727 48.4166 11.6818C48.4166 12.5833 48.25 13.3712 47.9166 14.0455C47.5871 14.7197 47.125 15.2443 46.5303 15.6193C45.9394 15.9943 45.25 16.1818 44.4621 16.1818ZM44.4621 14.9773C45.0606 14.9773 45.553 14.8239 45.9394 14.517C46.3257 14.2102 46.6117 13.8068 46.7973 13.3068C46.9829 12.8068 47.0757 12.2652 47.0757 11.6818C47.0757 11.0985 46.9829 10.5549 46.7973 10.0511C46.6117 9.54735 46.3257 9.14015 45.9394 8.82955C45.553 8.51894 45.0606 8.36364 44.4621 8.36364C43.8636 8.36364 43.3712 8.51894 42.9848 8.82955C42.5985 9.14015 42.3125 9.54735 42.1269 10.0511C41.9413 10.5549 41.8485 11.0985 41.8485 11.6818C41.8485 12.2652 41.9413 12.8068 42.1269 13.3068C42.3125 13.8068 42.5985 14.2102 42.9848 14.517C43.3712 14.8239 43.8636 14.9773 44.4621 14.9773ZM56.3253 9.22727L55.1208 9.56818C55.045 9.36742 54.9333 9.17235 54.7856 8.98295C54.6416 8.78977 54.4447 8.63068 54.1947 8.50568C53.9447 8.38068 53.6246 8.31818 53.2344 8.31818C52.7003 8.31818 52.2553 8.44129 51.8992 8.6875C51.5469 8.92992 51.3708 9.23864 51.3708 9.61364C51.3708 9.94697 51.492 10.2102 51.7344 10.4034C51.9769 10.5966 52.3556 10.7576 52.8708 10.8864L54.1662 11.2045C54.9466 11.3939 55.528 11.6837 55.9106 12.0739C56.2931 12.4602 56.4844 12.9583 56.4844 13.5682C56.4844 14.0682 56.3405 14.5152 56.0526 14.9091C55.7685 15.303 55.3708 15.6136 54.8594 15.8409C54.3481 16.0682 53.7534 16.1818 53.0753 16.1818C52.1852 16.1818 51.4484 15.9886 50.8651 15.6023C50.2818 15.2159 49.9125 14.6515 49.7572 13.9091L51.0299 13.5909C51.1511 14.0606 51.3803 14.4129 51.7174 14.6477C52.0583 14.8826 52.5034 15 53.0526 15C53.6776 15 54.1738 14.8674 54.5412 14.6023C54.9125 14.3333 55.0981 14.0114 55.0981 13.6364C55.0981 13.3333 54.992 13.0795 54.7799 12.875C54.5678 12.6667 54.242 12.5114 53.8026 12.4091L52.3481 12.0682C51.5488 11.8788 50.9617 11.5852 50.5867 11.1875C50.2155 10.786 50.0299 10.2841 50.0299 9.68182C50.0299 9.18939 50.1681 8.75379 50.4447 8.375C50.725 7.99621 51.1056 7.69886 51.5867 7.48295C52.0716 7.26705 52.6208 7.15909 53.2344 7.15909C54.0981 7.15909 54.7761 7.34848 55.2685 7.72727C55.7647 8.10606 56.117 8.60606 56.3253 9.22727ZM64.3647 9.22727L63.1602 9.56818C63.0844 9.36742 62.9727 9.17235 62.8249 8.98295C62.681 8.78977 62.484 8.63068 62.234 8.50568C61.984 8.38068 61.664 8.31818 61.2738 8.31818C60.7397 8.31818 60.2946 8.44129 59.9386 8.6875C59.5863 8.92992 59.4102 9.23864 59.4102 9.61364C59.4102 9.94697 59.5314 10.2102 59.7738 10.4034C60.0162 10.5966 60.395 10.7576 60.9102 10.8864L62.2056 11.2045C62.9859 11.3939 63.5674 11.6837 63.9499 12.0739C64.3325 12.4602 64.5238 12.9583 64.5238 13.5682C64.5238 14.0682 64.3799 14.5152 64.092 14.9091C63.8079 15.303 63.4102 15.6136 62.8988 15.8409C62.3874 16.0682 61.7927 16.1818 61.1147 16.1818C60.2246 16.1818 59.4878 15.9886 58.9045 15.6023C58.3212 15.2159 57.9518 14.6515 57.7965 13.9091L59.0693 13.5909C59.1905 14.0606 59.4196 14.4129 59.7568 14.6477C60.0977 14.8826 60.5427 15 61.092 15C61.717 15 62.2132 14.8674 62.5806 14.6023C62.9518 14.3333 63.1374 14.0114 63.1374 13.6364C63.1374 13.3333 63.0314 13.0795 62.8193 12.875C62.6071 12.6667 62.2814 12.5114 61.842 12.4091L60.3874 12.0682C59.5882 11.8788 59.0011 11.5852 58.6261 11.1875C58.2549 10.786 58.0693 10.2841 58.0693 9.68182C58.0693 9.18939 58.2075 8.75379 58.484 8.375C58.7643 7.99621 59.145 7.69886 59.6261 7.48295C60.1109 7.26705 60.6602 7.15909 61.2738 7.15909C62.1374 7.15909 62.8155 7.34848 63.3079 7.72727C63.8041 8.10606 64.1564 8.60606 64.3647 9.22727ZM67.5632 4.36364V16H66.2223V4.36364H67.5632ZM72.2673 16.2045C71.7143 16.2045 71.2124 16.1004 70.7617 15.892C70.3109 15.6799 69.9529 15.375 69.6878 14.9773C69.4226 14.5758 69.2901 14.0909 69.2901 13.5227C69.2901 13.0227 69.3885 12.6174 69.5855 12.3068C69.7825 11.9924 70.0457 11.7462 70.3753 11.5682C70.7048 11.3902 71.0685 11.2576 71.4662 11.1705C71.8677 11.0795 72.2711 11.0076 72.6764 10.9545C73.2067 10.8864 73.6367 10.8352 73.9662 10.8011C74.2995 10.7633 74.542 10.7008 74.6935 10.6136C74.8488 10.5265 74.9264 10.375 74.9264 10.1591V10.1136C74.9264 9.55303 74.773 9.11742 74.4662 8.80682C74.1632 8.49621 73.7029 8.34091 73.0855 8.34091C72.4454 8.34091 71.9435 8.48106 71.5798 8.76136C71.2162 9.04167 70.9605 9.34091 70.8128 9.65909L69.5401 9.20455C69.7673 8.67424 70.0704 8.26136 70.4492 7.96591C70.8317 7.66667 71.2484 7.45833 71.6992 7.34091C72.1537 7.2197 72.6007 7.15909 73.0401 7.15909C73.3204 7.15909 73.6423 7.19318 74.006 7.26136C74.3734 7.32576 74.7276 7.46023 75.0685 7.66477C75.4132 7.86932 75.6992 8.17803 75.9264 8.59091C76.1537 9.00379 76.2673 9.55682 76.2673 10.25V16H74.9264V14.8182H74.8582C74.7673 15.0076 74.6158 15.2102 74.4037 15.4261C74.1916 15.642 73.9094 15.8258 73.5571 15.9773C73.2048 16.1288 72.7749 16.2045 72.2673 16.2045ZM72.4719 15C73.0022 15 73.4492 14.8958 73.8128 14.6875C74.1802 14.4792 74.4567 14.2102 74.6423 13.8807C74.8317 13.5511 74.9264 13.2045 74.9264 12.8409V11.6136C74.8696 11.6818 74.7446 11.7443 74.5514 11.8011C74.362 11.8542 74.1423 11.9015 73.8923 11.9432C73.6461 11.9811 73.4056 12.0152 73.1707 12.0455C72.9397 12.072 72.7522 12.0947 72.6082 12.1136C72.2598 12.1591 71.934 12.233 71.631 12.3352C71.3317 12.4337 71.0893 12.5833 70.9037 12.7841C70.7219 12.9811 70.631 13.25 70.631 13.5909C70.631 14.0568 70.8033 14.4091 71.148 14.6477C71.4965 14.8826 71.9378 15 72.4719 15ZM79.7357 10.75V16H78.3948V7.27273H79.6902V8.63636H79.8039C80.0084 8.19318 80.319 7.83712 80.7357 7.56818C81.1524 7.29545 81.6902 7.15909 82.3493 7.15909C82.9402 7.15909 83.4573 7.2803 83.9005 7.52273C84.3436 7.76136 84.6883 8.125 84.9345 8.61364C85.1808 9.09848 85.3039 9.71212 85.3039 10.4545V16H83.963V10.5455C83.963 9.85985 83.7849 9.32576 83.4289 8.94318C83.0728 8.55682 82.5842 8.36364 81.963 8.36364C81.5349 8.36364 81.1524 8.45644 80.8152 8.64205C80.4819 8.82765 80.2186 9.09848 80.0255 9.45455C79.8323 9.81061 79.7357 10.2424 79.7357 10.75ZM90.7296 16.1818C90.0023 16.1818 89.3603 15.9981 88.8035 15.6307C88.2467 15.2595 87.811 14.7367 87.4967 14.0625C87.1823 13.3845 87.0251 12.5833 87.0251 11.6591C87.0251 10.7424 87.1823 9.94697 87.4967 9.27273C87.811 8.59848 88.2485 8.07765 88.8092 7.71023C89.3698 7.3428 90.0175 7.15909 90.7523 7.15909C91.3205 7.15909 91.7694 7.25379 92.0989 7.44318C92.4323 7.62879 92.686 7.84091 92.8603 8.07955C93.0383 8.31439 93.1766 8.50758 93.2751 8.65909H93.3887V4.36364H94.7296V16H93.4342V14.6591H93.2751C93.1766 14.8182 93.0364 15.0189 92.8546 15.2614C92.6728 15.5 92.4133 15.714 92.0762 15.9034C91.7391 16.089 91.2902 16.1818 90.7296 16.1818ZM90.9114 14.9773C91.4493 14.9773 91.9038 14.8371 92.2751 14.5568C92.6463 14.2727 92.9285 13.8807 93.1217 13.3807C93.3148 12.8769 93.4114 12.2955 93.4114 11.6364C93.4114 10.9848 93.3167 10.4148 93.1273 9.92614C92.9379 9.43371 92.6576 9.05114 92.2864 8.77841C91.9152 8.50189 91.4569 8.36364 90.9114 8.36364C90.3432 8.36364 89.8698 8.50947 89.491 8.80114C89.116 9.08902 88.8338 9.48106 88.6444 9.97727C88.4588 10.4697 88.366 11.0227 88.366 11.6364C88.366 12.2576 88.4607 12.822 88.6501 13.3295C88.8432 13.8333 89.1273 14.2348 89.5023 14.5341C89.8811 14.8295 90.3508 14.9773 90.9114 14.9773Z"
        fill="white" />
    <path
        d="M100.264 2.81337H99.2874V5.33337H98.6274V2.81337H97.6641V2.33337H100.264V2.81337ZM101.497 2.33337L102.317 4.50004L103.134 2.33337H103.997V5.33337H103.331V4.50004L103.404 3.08004L102.541 5.33337H102.091L101.231 3.08337L101.297 4.50004V5.33337H100.641V2.33337H101.497Z"
        fill="white" />
</svg>